<?xml version="1.0" encoding="UTF-8"?>
<svg id="_Слой_1" data-name="Слой_1" xmlns="http://www.w3.org/2000/svg" version="1.1" xmlns:xlink="http://www.w3.org/1999/xlink" viewBox="0 0 280 65">
  <!-- Generator: Adobe Illustrator 29.5.1, SVG Export Plug-In . SVG Version: 2.1.0 Build 141)  -->
  <defs>
    <style>
      .st0, .st1 {
        fill: #fff;
      }

      .st2 {
        fill: url(#_Безымянный_градиент_14);
      }

      .st3 {
        fill: #5b5b5b;
      }

      .st1 {
        font-family: Verdana-Bold, Verdana;
        font-size: 36px;
        font-weight: 700;
      }
    </style>
    <linearGradient id="_Безымянный_градиент_14" data-name="Безымянный градиент 14" x1="0" y1="32.5" x2="73" y2="32.5" gradientUnits="userSpaceOnUse">
      <stop offset="0" stop-color="#9333ea"/>
      <stop offset="1" stop-color="#4f46e5"/>
    </linearGradient>
  </defs>
  <rect class="st2" width="73" height="65" rx="13" ry="13"/>
  <rect class="st3" x="55" width="225" height="65"/>
  <path class="st0" d="M42.32,26.13l-10-9.97c-1.81-1.8-4.74-1.8-6.55,0l-10,9.97c-.9.91-.9,2.37,0,3.28.9.91,2.38.92,3.29.01,0,0,0,0,.01-.01l7.65-7.65v25.57c0,1.28,1.04,2.32,2.32,2.32s2.32-1.04,2.32-2.32v-25.57l7.65,7.65c.91.91,2.38.92,3.29.01.91-.91.92-2.38.01-3.29h0Z"/>
  <text class="st1" transform="translate(85.01 44.29)"><tspan x="0" y="0">НАВЕРХ</tspan></text>
</svg>