<?xml version="1.0" encoding="UTF-8"?>
<svg id="_Слой_1" data-name="Слой_1" xmlns="http://www.w3.org/2000/svg" version="1.1" xmlns:xlink="http://www.w3.org/1999/xlink" viewBox="0 0 280 65">
  <!-- Generator: Adobe Illustrator 29.5.1, SVG Export Plug-In . SVG Version: 2.1.0 Build 141)  -->
  <defs>
    <style>
      .st0 {
        fill: #fff;
      }

      .st1 {
        fill: url(#_Безымянный_градиент_14);
      }

      .st2 {
        fill: #e0e0e0;
      }

      .st3 {
        fill: #4c4c4c;
        font-family: Verdana-Bold, Verdana;
        font-size: 36px;
        font-weight: 700;
      }
    </style>
    <linearGradient id="_Безымянный_градиент_14" data-name="Безымянный градиент 14" x1="0" y1="32.5" x2="73" y2="32.5" gradientUnits="userSpaceOnUse">
      <stop offset="0" stop-color="#9333ea"/>
      <stop offset="1" stop-color="#4f46e5"/>
    </linearGradient>
  </defs>
  <rect class="st1" width="73" height="65" rx="13" ry="13"/>
  <rect class="st2" x="55" width="225" height="65"/>
  <path class="st0" d="M44.55,24.16l-13.38-13.35c-2.43-2.41-6.35-2.41-8.78,0l-13.38,13.35c-1.21,1.21-1.21,3.17,0,4.39,1.21,1.22,3.18,1.23,4.4.02,0,0,.01-.01.02-.02l10.24-10.24v34.23c0,1.72,1.39,3.11,3.11,3.11s3.11-1.39,3.11-3.11V18.31l10.24,10.24c1.21,1.22,3.18,1.23,4.4.02,1.22-1.21,1.23-3.18.02-4.4h0Z"/>
  <text class="st3" transform="translate(85.01 44.29)"><tspan x="0" y="0">НАВЕРХ</tspan></text>
</svg>